<svg width="30" height="30" viewBox="0 0 30 30" fill="none" xmlns="http://www.w3.org/2000/svg">
<path d="M28.5642 8.584C27.3396 5.98829 25.4001 3.80861 22.9568 2.27931C19.5583 0.158215 15.533 -0.515613 11.6306 0.386731C7.72826 1.28322 4.406 3.6504 2.2849 7.04884C0.157951 10.4473 -0.515877 14.4668 0.386467 18.375C1.28881 22.2774 3.656 25.5996 7.04858 27.7207C9.4392 29.2149 12.1814 30.0059 14.988 30.0059H15.1697C17.9646 29.9707 20.6833 29.1621 23.0388 27.6738C23.7244 27.2402 23.9236 26.3379 23.49 25.6524C23.0564 24.9668 22.154 24.7676 21.4685 25.2012C19.5759 26.4024 17.3845 27.0527 15.1345 27.082C12.8259 27.1113 10.5701 26.4727 8.60131 25.2481C5.86498 23.5371 3.96069 20.8652 3.23998 17.7246C2.51928 14.584 3.05834 11.3496 4.76928 8.61329C8.29662 2.97072 15.7615 1.24806 21.404 4.7754C23.3728 6.00587 24.9314 7.75783 25.9158 9.84376C26.8767 11.877 27.2517 14.1328 26.9998 16.3594C26.9119 17.1621 27.4861 17.8887 28.2947 17.9766C29.0974 18.0645 29.824 17.4902 29.9119 16.6817C30.2224 13.9102 29.7537 11.1094 28.5642 8.584Z" fill="#191825"/>
<path d="M19.8447 9.91406L12.7783 16.9805L10.1592 14.3613C9.58496 13.7871 8.65918 13.7871 8.08496 14.3613C7.51074 14.9355 7.51074 15.8613 8.08496 16.4355L11.7412 20.0918C12.0283 20.3789 12.4033 20.5195 12.7783 20.5195C13.1533 20.5195 13.5283 20.3789 13.8154 20.0918L21.9131 11.9883C22.4873 11.4141 22.4873 10.4883 21.9131 9.91406C21.3389 9.3457 20.4131 9.3457 19.8447 9.91406Z" fill="#191825"/>
</svg>
