<svg width="93" height="111" viewBox="0 0 93 111" fill="none" xmlns="http://www.w3.org/2000/svg">
<path d="M66.0192 12.8458C42.5776 3.21633 18.8013 14.7048 7.76829 36.2689C-3.45992 58.2234 -2.07498 87.2978 9.68303 108.685C12.1369 113.137 18.3551 109.234 16.366 104.781C7.68463 85.3272 6.00226 62.3038 14.5071 42.5058C18.1504 33.8885 24.4137 26.6367 32.409 21.7782C42.8657 15.3554 53.7872 16.3314 65.3779 17.3259C68.1664 17.5676 68.1571 13.7381 66.0192 12.8458Z" fill="#FF8F1F"/>
<path d="M91.6359 16.6289C82.183 10.2061 72.1167 2.38915 60.5725 0.381457C60.1648 0.289745 59.7374 0.358464 59.379 0.573365C59.0206 0.788266 58.7586 1.13286 58.6475 1.53569C58.5363 1.93853 58.5845 2.36869 58.7819 2.73699C58.9794 3.10529 59.311 3.38346 59.708 3.51383C69.4119 7.32472 77.6657 12.9574 85.9196 19.1013C80.6773 23.2747 74.6263 26.7045 70.1183 31.6122C69.7127 32.0495 69.4753 32.6165 69.4486 33.2123C69.4218 33.8081 69.6073 34.3941 69.9721 34.8659C70.3368 35.3378 70.8572 35.6649 71.4406 35.7891C72.0239 35.9132 72.6324 35.8264 73.1577 35.544C80.141 31.572 86.5356 26.6447 92.1564 20.9045C92.4405 20.6064 92.6551 20.2491 92.7847 19.8582C92.9143 19.4673 92.9557 19.0526 92.9059 18.6438C92.8561 18.235 92.7164 17.8423 92.4969 17.4939C92.2773 17.1456 91.9833 16.8501 91.6359 16.6289Z" fill="#FF8F1F"/>
</svg>
