<svg width="124" height="124" viewBox="0 0 124 124" fill="none" xmlns="http://www.w3.org/2000/svg">
<path d="M65 118.57C65.05 119.444 65.7993 120.114 66.6713 120.04C78.0352 119.08 88.8838 114.818 97.8721 107.761C107.276 100.378 114.193 90.2906 117.689 78.8572C121.186 67.4238 121.096 55.1935 117.43 43.813C113.765 32.4325 106.7 22.4484 97.1881 15.2051C87.6758 7.96171 76.1724 3.80692 64.227 3.30014C52.2815 2.79336 40.4676 5.95893 30.376 12.3706C20.2843 18.7823 12.3996 28.1321 7.7834 39.1613C3.3714 49.7026 2.14772 61.2941 4.24475 72.504C4.40567 73.3642 5.25078 73.9083 6.10634 73.7242V73.7242C6.96189 73.54 7.50377 72.6973 7.34419 71.8369C5.38264 61.2605 6.54493 50.3287 10.7069 40.3849C15.0729 29.9532 22.5305 21.1099 32.0755 15.0456C41.6204 8.98123 52.7943 5.98715 64.0926 6.46648C75.391 6.9458 86.2711 10.8755 95.2681 17.7265C104.265 24.5774 110.947 34.0206 114.414 44.7846C117.881 55.5485 117.966 67.1163 114.659 77.9303C111.351 88.7443 104.81 98.2852 95.9151 105.268C87.4363 111.925 77.2073 115.953 66.4901 116.875C65.6182 116.95 64.95 117.696 65 118.57V118.57Z" fill="#FF8F1F"/>
<path d="M92.4689 55.9859C90.62 57.3293 89.1302 59.1069 88.1307 61.1621C86.6518 63.627 85.8138 64.8594 84.5074 64.8594C83.201 64.8594 82.363 63.6763 80.8841 61.1621C79.4052 58.648 77.2854 55 72.9965 55C68.7077 55 66.6372 58.5494 65.109 61.1621C63.5808 63.7749 62.7921 64.8594 61.5103 64.8594C60.2286 64.8594 59.3659 63.6763 57.887 61.1621C56.4081 58.648 54.2883 55 49.9995 55C45.7107 55 43.6402 58.5494 42.112 61.1621C40.5838 63.7749 39.8197 64.8594 38.4887 64.8594C37.1576 64.8594 36.3442 63.6763 34.89 61.1621C33.8905 59.1069 32.4007 57.3293 30.5518 55.9859C30.1831 55.8049 29.775 55.7189 29.3645 55.7357C28.9541 55.7526 28.5544 55.8717 28.2017 56.0823C27.8491 56.293 27.5546 56.5884 27.3452 56.9417C27.1357 57.2951 27.0179 57.6952 27.0025 58.1057C26.9841 58.5174 27.0692 58.9272 27.25 59.2975C27.4309 59.6678 27.7017 59.9869 28.0377 60.2255C29.1387 61.1564 30.0222 62.3175 30.6258 63.627C32.1293 66.2397 34.1998 69.7891 38.4887 69.7891C42.7775 69.7891 44.8726 66.2397 46.3762 63.627C47.8797 61.0142 48.6685 59.9297 49.9995 59.9297C51.3305 59.9297 52.1439 61.1128 53.5982 63.627C55.0524 66.1411 57.1969 69.7891 61.5103 69.7891C65.8238 69.7891 67.8697 66.2397 69.3979 63.627C70.9261 61.0142 71.6902 59.9297 73.0212 59.9297C74.3522 59.9297 75.1656 61.1128 76.6445 63.627C78.1234 66.1411 80.2432 69.7891 84.532 69.7891C88.8209 69.7891 90.8914 66.2397 92.4196 63.627C92.9873 62.3292 93.828 61.1691 94.8844 60.2255C95.2386 59.9983 95.5288 59.6842 95.7273 59.3132C95.9257 58.9421 96.0259 58.5264 96.0182 58.1057C96.0028 57.6952 95.885 57.2951 95.6755 56.9417C95.4661 56.5884 95.1716 56.293 94.819 56.0823C94.4663 55.8717 94.0666 55.7526 93.6561 55.7357C93.2457 55.7189 92.8376 55.8049 92.4689 55.9859V55.9859Z" fill="#FF8F1F"/>
</svg>
