<svg width="102" height="554" viewBox="0 0 102 554" fill="none" xmlns="http://www.w3.org/2000/svg">
<g clip-path="url(#clip0_219_456)">
<path d="M36.4548 30.0228C37.9366 30.0228 39.1421 28.8173 39.1421 27.3355C39.1421 25.8537 37.9366 24.6482 36.4548 24.6482C34.973 24.6482 33.7676 25.8537 33.7676 27.3355C33.7676 28.8173 34.973 30.0228 36.4548 30.0228Z" fill="#FF8F1F"/>
<path d="M36.4548 33.2262C34.1123 33.2262 32.1226 34.7651 31.4434 36.8852H41.4662C40.7871 34.7651 38.7973 33.2262 36.4548 33.2262Z" fill="#FF8F1F"/>
<path d="M69.0512 7.72015H24.446C21.6338 7.72015 19.4131 10.0042 19.4131 12.7531V41.9181C19.4131 44.7302 21.6971 46.9509 24.446 46.9509H69.0512C71.8634 46.9509 74.0841 44.6669 74.0841 41.918V12.7531C74.0841 9.94074 71.8001 7.72015 69.0512 7.72015ZM43.3174 40.0886H29.5927C28.7081 40.0886 27.991 39.3715 27.991 38.4869C27.991 35.4272 29.623 32.7417 32.0622 31.2547C31.1316 30.2126 30.5645 28.8393 30.5645 27.3356C30.5645 24.0875 33.207 21.4449 36.4551 21.4449C39.7032 21.4449 42.3458 24.0875 42.3458 27.3356C42.3458 28.8394 41.7787 30.2127 40.848 31.2548C43.2871 32.7418 44.9192 35.4274 44.9192 38.487C44.9191 39.3715 44.2019 40.0886 43.3174 40.0886ZM60.4733 40.0886H51.8954C51.0108 40.0886 50.2937 39.3715 50.2937 38.4869C50.2937 37.6024 51.0108 36.8852 51.8954 36.8852H60.4733C61.3578 36.8852 62.075 37.6024 62.075 38.4869C62.075 39.3715 61.3578 40.0886 60.4733 40.0886ZM63.9045 33.2262H51.8954C51.0108 33.2262 50.2937 32.5091 50.2937 31.6245C50.2937 30.74 51.0108 30.0228 51.8954 30.0228H63.9045C64.7891 30.0228 65.5062 30.74 65.5062 31.6245C65.5062 32.5091 64.7891 33.2262 63.9045 33.2262ZM63.9045 26.3638H51.8954C51.0108 26.3638 50.2937 25.6467 50.2937 24.7621C50.2937 23.8776 51.0108 23.1605 51.8954 23.1605H63.9045C64.7891 23.1605 65.5062 23.8776 65.5062 24.7621C65.5062 25.6467 64.7891 26.3638 63.9045 26.3638ZM63.9045 17.7858H29.5927C28.7081 17.7858 27.991 17.0687 27.991 16.1841C27.991 15.2996 28.7081 14.5824 29.5927 14.5824H63.9045C64.7891 14.5824 65.5062 15.2996 65.5062 16.1841C65.5062 17.0687 64.7891 17.7858 63.9045 17.7858Z" fill="#FF8F1F"/>
</g>
<path d="M57.2274 51.0263C74.6918 89.5998 104.973 174.674 86.3853 206.383M86.3853 206.383C63.1501 246.02 23.058 229.163 23.058 203.65C23.058 178.137 59.0498 162.191 86.3853 206.383ZM86.3853 206.383C85.1704 221.873 73.4465 259.141 36.2702 284.289C-10.2002 315.725 -1.54399 364.018 10.757 384.064M10.757 384.064C23.058 404.11 56.3162 418.234 74.9955 384.064C93.6747 349.895 18.5021 332.127 10.757 384.064ZM10.757 384.064C0.733961 421.271 -4.09534 505.343 56.7718 543.977" stroke="white" stroke-opacity="0.5" stroke-dasharray="10 10"/>
<g clip-path="url(#clip1_219_456)">
<path d="M50.523 546.697C50.7472 545.619 51.8029 544.928 52.8806 545.152C53.9583 545.376 54.6501 546.432 54.4257 547.51C54.2964 548.13 54.4503 548.767 54.8479 549.256C55.0782 549.539 55.5914 550.014 56.4423 550.014H61.185C61.6503 542.297 68.0749 536.161 75.9068 536.161C83.7386 536.161 90.1633 542.297 90.6285 550.014H95.3712C96.2221 550.014 96.7354 549.539 96.9657 549.256C97.3633 548.767 97.5171 548.13 97.3879 547.51C95.2974 537.469 86.2633 530.181 75.9068 530.181C68.5264 530.181 61.7081 533.778 57.668 539.804C57.055 540.718 55.8167 540.963 54.9025 540.35C53.9881 539.736 53.7439 538.498 54.3569 537.584C57.6183 532.72 62.4031 529.193 67.8802 527.442C64.5304 524.972 62.3529 521 62.3529 516.528C62.3529 509.054 68.4332 502.974 75.9068 502.974C83.3803 502.974 89.4607 509.054 89.4607 516.528C89.4607 521.006 87.2767 524.984 83.9184 527.453C86.9816 528.437 89.8539 529.981 92.3612 532.026C96.9244 535.747 100.096 540.958 101.291 546.697C101.666 548.498 101.216 550.347 100.058 551.771C98.9063 553.187 97.1979 554 95.3712 554H56.4424C54.6157 554 52.9073 553.187 51.7552 551.771C50.5971 550.347 50.1481 548.498 50.523 546.697ZM75.9068 506.96C70.6312 506.96 66.3393 511.252 66.3393 516.528C66.3393 521.803 70.6312 526.095 75.9068 526.095C81.1823 526.095 85.4742 521.803 85.4742 516.528C85.4742 511.252 81.1823 506.96 75.9068 506.96ZM65.1811 550.014H73.7218C72.7904 549.757 71.9066 549.339 71.1031 548.768L66.5749 545.551C65.8057 546.886 65.3149 548.4 65.1811 550.014ZM69.1819 542.513L73.4117 545.518C74.156 546.047 75.0321 546.326 75.9451 546.326C76.8685 546.326 77.7526 546.041 78.5019 545.501L82.6404 542.52C80.7953 541.037 78.4532 540.147 75.9068 540.147C73.3644 540.147 71.0255 541.034 69.1819 542.513ZM85.2429 545.559L80.8317 548.736C80.0161 549.323 79.1167 549.752 78.1677 550.014H86.6326C86.4989 548.403 86.0098 546.891 85.2429 545.559Z" fill="#FF8F1F"/>
</g>
<defs>
<clipPath id="clip0_219_456">
<rect width="54.6711" height="54.6711" fill="white" transform="translate(19.4131)"/>
</clipPath>
<clipPath id="clip1_219_456">
<rect width="51.0263" height="51.0263" fill="white" transform="matrix(-1 0 0 1 101.42 502.974)"/>
</clipPath>
</defs>
</svg>
