<svg width="50" height="50" viewBox="0 0 50 50" fill="none" xmlns="http://www.w3.org/2000/svg">
<g clip-path="url(#clip0_304_195)">
<path d="M42.6777 7.32236C37.9558 2.60053 31.6778 0 24.9999 0C18.3223 0 12.0442 2.60053 7.32236 7.32236C2.60053 12.0442 0 18.3223 0 25.0001C0 31.6778 2.60042 37.9558 7.32236 42.6777C12.0443 47.3997 18.3223 50.0001 25.0001 50.0001C31.6778 50.0001 37.9559 47.3997 42.6777 42.6777C47.3996 37.9559 50.0001 31.6778 50.0001 25.0001C50.0001 18.3223 47.3996 12.0442 42.6777 7.32236ZM24.9999 48.0046C12.3152 48.0046 1.99538 37.6848 1.99538 25.0001C1.99538 12.3153 12.3152 1.99538 24.9999 1.99538C37.6848 1.99538 48.0046 12.3152 48.0046 24.9999C48.0046 37.6847 37.6849 48.0046 24.9999 48.0046Z" fill="#FF8F1F"/>
<path d="M24.9997 4.22681C13.5453 4.22681 4.22656 13.5455 4.22656 25C4.22656 36.4545 13.5453 45.7733 24.9997 45.7733C36.4542 45.7733 45.773 36.4545 45.773 25C45.773 13.5455 36.4542 4.22681 24.9997 4.22681ZM27.4732 39.8301H22.5246C20.6545 33.5853 15.9192 28.5408 9.79576 26.2891L11.506 19.0293C15.898 17.9605 20.4342 17.4173 25.0001 17.4173C29.5675 17.4173 34.1033 17.9608 38.4937 19.0304L40.2036 26.2885C34.0794 28.5396 29.3435 33.5844 27.4732 39.8301ZM6.22194 25C6.22194 23.4113 6.42103 21.8684 6.79428 20.394C7.62912 20.1123 8.47327 19.8495 9.31998 19.6071L7.88652 25.6917C7.34167 25.5496 6.78807 25.4284 6.22615 25.3302C6.22427 25.2203 6.22194 25.1104 6.22194 25ZM42.1131 25.6914L40.6798 19.6076C41.5273 19.85 42.3715 20.1129 43.2055 20.3947C43.5786 21.8688 43.7777 23.4116 43.7777 25C43.7777 25.1103 43.7753 25.2202 43.7735 25.33C43.2115 25.4282 42.6579 25.5493 42.1131 25.6914ZM24.9997 6.22218C32.9003 6.22218 39.6763 11.127 42.4443 18.0513C41.4912 17.756 40.5303 17.4846 39.5713 17.2412C34.8394 16.0342 29.937 15.4222 25.0001 15.4222C20.0652 15.4222 15.1624 16.0339 10.4283 17.24C9.46985 17.4839 8.50908 17.7556 7.55529 18.0511C10.3234 11.1268 17.0993 6.22218 24.9997 6.22218ZM6.37303 27.3877C14.2276 28.9776 20.2376 35.4471 21.2491 43.4012C13.4495 41.8139 7.39134 35.3768 6.37303 27.3877ZM23.2905 43.6992C23.2271 43.0662 23.1356 42.4411 23.0165 41.8254H26.9816C26.8623 42.4411 26.771 43.0663 26.7076 43.6994C26.1449 43.7504 25.5756 43.7779 24.9999 43.7779C24.4235 43.7778 23.8536 43.7503 23.2905 43.6992ZM28.7488 43.4016C29.7604 35.446 35.7711 28.9762 43.6267 27.3874C42.6084 35.3773 36.5493 41.8147 28.7488 43.4016Z" fill="#FF8F1F"/>
<path d="M24.9996 19.3267C21.8713 19.3267 19.3262 21.8718 19.3262 25.0001C19.3262 28.1285 21.8713 30.6736 24.9996 30.6736C28.128 30.6736 30.6731 28.1285 30.6731 25.0001C30.6731 21.8718 28.128 19.3267 24.9996 19.3267ZM24.9996 28.6781C22.9715 28.6781 21.3215 27.0281 21.3215 25C21.3215 22.9719 22.9715 21.3219 24.9996 21.3219C27.0277 21.3219 28.6777 22.9719 28.6777 25C28.6777 27.0281 27.0278 28.6781 24.9996 28.6781Z" fill="#FF8F1F"/>
</g>
<defs>
<clipPath id="clip0_304_195">
<rect width="50" height="50" fill="white"/>
</clipPath>
</defs>
</svg>
