<svg width="412" height="412" viewBox="0 0 412 412" fill="none" xmlns="http://www.w3.org/2000/svg">
<path d="M206 0C92.2365 0 0 92.2365 0 206C0 319.764 92.2365 412 206 412C319.764 412 412 319.764 412 206C412 92.2365 319.764 0 206 0ZM206 51.5C273.04 51.5 329.664 94.6828 351.05 154.5H60.9503C82.3356 94.6828 138.96 51.5 206 51.5ZM206 231.75C191.773 231.75 180.25 220.227 180.25 206C180.25 191.773 191.773 180.25 206 180.25C220.227 180.25 231.75 191.773 231.75 206C231.75 220.227 220.227 231.75 206 231.75ZM51.5 206C121.862 206 178.847 273.8 180.044 357.886C107.223 345.411 51.5 282.297 51.5 206ZM231.956 357.886C233.153 273.8 290.138 206 360.5 206C360.5 282.297 304.777 345.411 231.956 357.886Z" fill="#FF8F1F" fill-opacity="0.1"/>
</svg>
